<svg xmlns="http://www.w3.org/2000/svg" width="60" height="60" viewBox="0 0 60 60" fill="none"><path d="M58.07 43.188C57.964 43.1 45.972 34.568 42.734 35.09C41.172 35.366 40.28 36.432 38.49 38.564C38.202 38.908 37.508 39.73 36.972 40.316C35.8407 39.9474 34.7372 39.4983 33.67 38.972C28.161 36.29 23.71 31.839 21.028 26.33C20.5017 25.2628 20.0526 24.1593 19.684 23.028C20.272 22.49 21.096 21.796 21.448 21.5C23.57 19.72 24.634 18.826 24.91 17.262C25.476 14.024 16.9 2.036 16.812 1.928C16.4214 1.37411 15.9128 0.913849 15.3227 0.580434C14.7327 0.247018 14.076 0.0487702 13.4 0C9.924 0 0 12.872 0 15.042C0 15.168 0.182 27.976 15.976 44.042C32.024 59.818 44.832 60 44.958 60C47.126 60 60 50.076 60 46.6C59.9507 45.9239 59.752 45.2672 59.4183 44.6772C59.0846 44.0872 58.6241 43.5785 58.07 43.188V43.188ZM44.736 55.988C43 55.84 32.24 54.422 18.8 41.22C5.534 27.714 4.152 16.936 4.014 15.266C6.63555 11.1513 9.80158 7.41004 13.426 4.144C13.506 4.224 13.612 4.344 13.748 4.5C16.5277 8.29446 18.9222 12.3565 20.896 16.626C20.2541 17.2717 19.5757 17.8801 18.864 18.448C17.7604 19.2889 16.747 20.242 15.84 21.292C15.6865 21.5073 15.5773 21.7509 15.5186 22.0088C15.4599 22.2666 15.4529 22.5335 15.498 22.794C15.9213 24.6275 16.5695 26.4016 17.428 28.076C20.5038 34.392 25.6075 39.4951 31.924 42.57C33.5981 43.4297 35.3723 44.0787 37.206 44.502C37.4665 44.5481 37.7336 44.5416 37.9916 44.4829C38.2495 44.4242 38.4931 44.3144 38.708 44.16C39.7617 43.2493 40.7181 42.2319 41.562 41.124C42.19 40.376 43.028 39.378 43.346 39.096C47.6263 41.0679 51.6975 43.4653 55.498 46.252C55.664 46.392 55.782 46.5 55.86 46.57C52.5938 50.1956 48.8518 53.3623 44.736 55.984V55.988Z" fill="#2A5238"></path><path d="M44 28H48C47.9952 23.758 46.308 19.6911 43.3084 16.6916C40.3089 13.692 36.242 12.0048 32 12V16C35.1816 16.0032 38.232 17.2685 40.4818 19.5182C42.7315 21.768 43.9968 24.8184 44 28V28Z" fill="#2A5238"></path><path d="M54 28H58C57.9921 21.1068 55.2502 14.4982 50.376 9.62396C45.5018 4.74974 38.8932 2.00791 32 1.99997V5.99997C37.8327 6.00685 43.4244 8.32691 47.5487 12.4512C51.6731 16.5755 53.9931 22.1673 54 28Z" fill="#2A5238"></path></svg>