<svg xmlns="http://www.w3.org/2000/svg" xmlns:xlink="http://www.w3.org/1999/xlink" width="38" height="38" viewBox="0 0 45 43"><defs><clipPath id="a"><rect width="45" height="43" fill="none"></rect></clipPath></defs><g clip-path="url(#a)"><path d="M21.5,43A21.5,21.5,0,1,1,43,21.5,21.524,21.524,0,0,1,21.5,43Zm0-41.2A19.7,19.7,0,1,0,41.2,21.5,19.72,19.72,0,0,0,21.5,1.8ZM17.863,30.126a.913.913,0,0,1-.34-.068.3.3,0,0,1-.056-.035.4.4,0,0,0-.04-.027l-.046-.026a.623.623,0,0,1-.148-.1L8.641,21.5A.9.9,0,0,1,9.9,20.212l7.965,7.753L33.1,13.129a.9.9,0,0,1,1.258,1.292L18.491,29.87a.621.621,0,0,1-.147.1L18.3,30a.4.4,0,0,0-.04.027.3.3,0,0,1-.056.035A.91.91,0,0,1,17.863,30.126Z" transform="translate(0)" fill="#5eac0b"></path></g></svg>