<svg xmlns="http://www.w3.org/2000/svg" width="65" height="60" viewBox="0 0 65 60" fill="none"><path d="M61.1946 15.0722L33.3924 0.270402C33.0587 0.0928545 32.6865 0 32.3085 0C31.9305 0 31.5582 0.0928545 31.2245 0.270402L3.29474 15.1442C2.28494 15.7609 1.45121 16.6275 0.87408 17.6604C0.296949 18.6933 -0.00408849 19.8576 4.19379e-05 21.0408V53.0769C0.00205766 54.9124 0.732099 56.6722 2.02999 57.97C3.32789 59.2679 5.08763 59.998 6.92313 60H57.6924C59.5279 59.998 61.2877 59.2679 62.5855 57.97C63.8834 56.6722 64.6135 54.9124 64.6155 53.0769V21.0408C64.6141 19.8342 64.2977 18.649 63.6977 17.6022C63.0978 16.5553 62.2349 15.6833 61.1946 15.0722V15.0722ZM42.4743 36.3766L60.0001 26.9397V48.6448L42.4743 36.3766ZM5.58905 19.1467L32.3078 4.92179L58.9003 19.0744C59.2375 19.2797 59.5159 19.5686 59.7086 19.9131C59.9013 20.2576 60.0017 20.6461 60.0001 21.0408V21.6992L32.3078 36.6099L4.61543 21.6992V21.0408C4.60936 20.6694 4.69504 20.3021 4.86488 19.9717C5.03471 19.6413 5.28345 19.3579 5.58905 19.1467V19.1467ZM4.61543 26.9397L22.1412 36.3766L4.61543 48.6448V26.9397ZM57.6924 55.3846H6.92313C6.49587 55.3815 6.078 55.259 5.71664 55.0311C5.35528 54.8031 5.06483 54.4787 4.87805 54.0944L26.6901 38.826L31.2148 41.2615C31.5506 41.4427 31.9262 41.5376 32.3078 41.5376C32.6893 41.5376 33.0649 41.4427 33.4007 41.2615L37.9254 38.8251L59.7375 54.0935C59.5508 54.4779 59.2604 54.8025 58.8991 55.0307C58.5377 55.2588 58.1198 55.3814 57.6924 55.3846V55.3846Z" fill="#2A5238"></path></svg>